{"asset":{"version":"2.0","generator":"babylon.js glTF exporter for Autodesk MAYA 2022 v20220322.1"},"scene":0,"scenes":[{"nodes":[0,1]}],"nodes":[{"mesh":0,"name":"Leg","extras":{"currentUVSet":"map1","UDP3DSMAX":"MapChannel:1 = map1&cr;&lf;babylonjs_GUID = 29906d3b-bb4a-4e4c-bfe0-ff4ed3063b46&cr;&lf;","MaxHandle":4}},{"mesh":1,"name":"Table","extras":{"currentUVSet":"map1","UDP3DSMAX":"MapChannel:1 = map1&cr;&lf;babylonjs_GUID = b2be632d-a167-4750-9cba-379f6cad1fed&cr;&lf;","MaxHandle":3}}],"meshes":[{"primitives":[{"attributes":{"POSITION":1,"TANGENT":2,"NORMAL":3,"TEXCOORD_0":4},"indices":0,"material":0}],"name":"Leg"},{"primitives":[{"attributes":{"POSITION":6,"TANGENT":7,"NORMAL":8,"TEXCOORD_0":9},"indices":5,"material":1}],"name":"Table"}],"accessors":[{"bufferView":0,"componentType":5123,"count":10062,"type":"SCALAR","name":"accessorIndices"},{"bufferView":1,"componentType":5126,"count":2375,"max":[0.394766927,0.231051117,0.5381722],"min":[-0.386801839,0.00111663819,-0.529109955],"type":"VEC3","name":"accessorPositions"},{"bufferView":2,"componentType":5126,"count":2375,"type":"VEC4","name":"accessorTangents"},{"bufferView":1,"byteOffset":28500,"componentType":5126,"count":2375,"type":"VEC3","name":"accessorNormals"},{"bufferView":3,"componentType":5126,"count":2375,"type":"VEC2","name":"accessorUVs"},{"bufferView":0,"byteOffset":20124,"componentType":5123,"count":13488,"type":"SCALAR","name":"accessorIndices"},{"bufferView":1,"byteOffset":57000,"componentType":5126,"count":2709,"max":[0.40286532,0.267088324,0.5395453],"min":[-0.394776821,0.0929706544,-0.539210856],"type":"VEC3","name":"accessorPositions"},{"bufferView":2,"byteOffset":38000,"componentType":5126,"count":2709,"type":"VEC4","name":"accessorTangents"},{"bufferView":1,"byteOffset":89508,"componentType":5126,"count":2709,"type":"VEC3","name":"accessorNormals"},{"bufferView":3,"byteOffset":19000,"componentType":5126,"count":2709,"type":"VEC2","name":"accessorUVs"}],"bufferViews":[{"buffer":0,"byteLength":47100,"name":"bufferViewScalar"},{"buffer":0,"byteOffset":47100,"byteLength":122016,"byteStride":12,"name":"bufferViewFloatVec3"},{"buffer":0,"byteOffset":169116,"byteLength":81344,"byteStride":16,"name":"bufferViewFloatVec4"},{"buffer":0,"byteOffset":250460,"byteLength":40672,"byteStride":8,"name":"bufferViewFloatVec2"}],"buffers":[{"uri":"Table.bin","byteLength":291132}],"materials":[{"pbrMetallicRoughness":{"baseColorTexture":{"index":2},"metallicRoughnessTexture":{"index":1}},"normalTexture":{"index":0},"occlusionTexture":{"index":1},"name":"StingrayPBS2"},{"pbrMetallicRoughness":{"baseColorTexture":{"index":5},"metallicRoughnessTexture":{"index":4}},"normalTexture":{"index":3},"occlusionTexture":{"index":4},"name":"StingrayPBS1"}],"textures":[{"sampler":0,"source":0,"name":"mat_opq_sc036_leg_normal.png"},{"sampler":0,"source":1,"name":"mat_opq_sc036_leg_occlusionRoughnessMetallic.png"},{"sampler":0,"source":2,"name":"mat_opq_sc036_leg_baseColor.png"},{"sampler":0,"source":3,"name":"mat_opq_sc036_table_normal.png"},{"sampler":0,"source":4,"name":"mat_opq_sc036_table_occlusionRoughnessMetallic.png"},{"sampler":0,"source":5,"name":"mat_opq_sc036_table_baseColor.png"}],"images":[{"uri":"mat_opq_sc036_leg_normal.png"},{"uri":"mat_opq_sc036_leg_occlusionRoughnessMetallic.png"},{"uri":"mat_opq_sc036_leg_baseColor.png"},{"uri":"mat_opq_sc036_table_normal.png"},{"uri":"mat_opq_sc036_table_occlusionRoughnessMetallic.png"},{"uri":"mat_opq_sc036_table_baseColor.png"}],"samplers":[{"magFilter":9729,"minFilter":9987}]}